# Blender 3.5.0
# www.blender.org
mtllib BlackL.mtl
o BlackL
v -0.031818 0.004249 -0.849477
v -0.031818 0.500576 -0.849477
v 0.729866 0.004249 -1.244339
v 0.729866 0.166956 -1.244339
v 0.459599 0.004249 -0.249571
v 0.459599 0.500576 -0.249571
v 0.996691 0.004249 -0.918608
v 0.996691 0.166956 -0.918608
vn -0.4602 -0.0000 -0.8878
vn 0.7736 -0.0000 -0.6337
vn 0.7798 -0.0000 0.6260
vn -0.7736 -0.0000 0.6337
vn -0.0000 -1.0000 -0.0000
vn 0.2857 0.9293 -0.2340
vt 0.375000 0.000000
vt 0.375000 1.000000
vt 0.125000 0.750000
vt 0.625000 0.000000
vt 0.625000 1.000000
vt 0.875000 0.750000
vt 0.375000 0.250000
vt 0.125000 0.500000
vt 0.625000 0.250000
vt 0.875000 0.500000
vt 0.375000 0.750000
vt 0.625000 0.750000
vt 0.375000 0.500000
vt 0.625000 0.500000
s 0
usemtl マテリアル
f 1/1/1 2/4/1 4/9/1 3/7/1
f 3/7/2 4/9/2 8/14/2 7/13/2
f 7/13/3 8/14/3 6/12/3 5/11/3
f 5/11/4 6/12/4 2/5/4 1/2/4
f 3/8/5 7/13/5 5/11/5 1/3/5
f 8/14/6 4/10/6 2/6/6 6/12/6
