# Blender 3.5.0
# www.blender.org
mtllib RedL.mtl
o RedL
v -0.295950 -1.592698 -0.323906
v -0.295033 -1.139282 -0.323970
v -0.816412 -1.591610 -0.075589
v -0.815494 -1.138194 -0.075653
v -0.693993 -1.592009 -1.158189
v -0.693075 -1.400022 -1.158252
v -1.214455 -1.590921 -0.909872
v -1.213537 -1.398934 -0.909935
vn -0.4306 0.0007 -0.9025
vn 0.9028 -0.0019 -0.4301
vn 0.4306 -0.0018 0.9025
vn -0.9025 0.0045 0.4306
vn 0.0020 1.0000 -0.0001
vn 0.1153 -0.9624 0.2458
vn 0.9025 -0.0045 -0.4306
vn -0.9028 0.0019 0.4301
vt 0.659383 0.730022
vt 0.840718 0.698806
vt 0.599946 0.730022
vt 0.599946 0.730022
vt 0.781280 0.698806
vt 0.743261 0.273388
vt 0.524352 0.730022
vt 0.659383 0.805616
vt 0.781280 0.577632
vt 0.840718 0.577632
vt 0.818854 0.273349
vt 0.599946 0.805616
vt 0.840718 0.577632
vt 0.496004 0.509909
vt 0.599946 0.851196
vt 0.470836 0.509974
vt 0.815550 0.577658
vt 0.743261 0.399290
vt 0.496004 0.434315
vt 0.781280 0.456458
vt 0.524352 0.851196
vt 0.806448 0.456483
vt 0.470836 0.434380
vt 0.818854 0.399252
s 0
usemtl マテリアル
f 1/1/1 4/12/1 2/4/1
f 3/9/2 8/22/2 4/10/2
f 5/14/3 8/23/3 7/19/3
f 1/2/4 6/17/4 5/13/4
f 1/3/5 7/21/5 3/7/5
f 8/24/6 2/6/6 4/11/6
f 1/1/1 3/8/1 4/12/1
f 3/9/7 7/20/7 8/22/7
f 5/14/3 6/16/3 8/23/3
f 1/2/8 2/5/8 6/17/8
f 1/3/5 5/15/5 7/21/5
f 8/24/6 6/18/6 2/6/6
