# Blender 3.5.0
# www.blender.org
mtllib RedL.mtl
o RedL
v -0.123229 0.001109 -0.728418
v -0.123229 0.680393 -0.728418
v 1.138323 0.002403 -1.069249
v 1.138323 0.093415 -1.069249
v 0.048241 0.001109 -0.302172
v 0.048241 0.680393 -0.302172
v 1.194379 0.002403 -0.929902
v 1.194379 0.093415 -0.929902
vn -0.2608 -0.0000 -0.9654
vn 0.9277 -0.0000 -0.3732
vn 0.4804 -0.0000 0.8771
vn -0.9277 -0.0000 0.3732
vn 0.0009 -1.0000 -0.0004
vn 0.3824 0.9111 -0.1538
vt 0.438252 0.771374
vt 0.000000 0.772479
vt 0.399802 0.998324
vt 0.319446 0.771374
vt 0.000000 0.891286
vt 0.317969 0.799574
vt 0.438026 0.542818
vt 0.290925 0.543924
vt 0.426845 0.771374
vt 0.422108 0.542818
vt 0.290925 0.550485
vt 0.080356 0.772479
vt 0.438252 0.771374
vt 0.480158 0.998324
vt 0.237612 0.799574
vt 0.557058 0.771374
vt 0.080356 0.891286
vt 0.438478 0.542818
vt 0.264656 0.543924
vt 0.453115 0.771374
vt 0.454396 0.542818
vt 0.264656 0.550485
s 0
usemtl マテリアル
f 1/1/1 4/10/1 3/7/1
f 4/11/2 7/19/2 3/8/2
f 8/21/3 5/13/3 7/18/3
f 6/17/4 1/2/4 5/12/4
f 7/20/5 1/3/5 3/9/5
f 8/22/6 2/6/6 6/15/6
f 1/1/1 2/4/1 4/10/1
f 4/11/2 8/22/2 7/19/2
f 8/21/3 6/16/3 5/13/3
f 6/17/4 2/5/4 1/2/4
f 7/20/5 5/14/5 1/3/5
f 8/22/6 4/11/6 2/6/6
