# Blender 4.0.2
# www.blender.org
mtllib T_stage_01.mtl
o 立方体.004
v -47.079647 -0.441720 7.331458
v -47.079647 0.441720 7.331458
v -47.079647 -0.441720 -7.331458
v -47.079647 0.441720 -7.331458
v -30.059071 -0.441720 7.331458
v -30.059071 0.441720 7.331458
v -30.059071 -0.441720 -7.331458
v -30.059071 0.441720 -7.331458
v -46.554638 -0.546324 3.288123
v -46.554638 9.012056 3.288123
v -46.554638 -0.546324 -2.823607
v -46.554638 9.012056 -2.823607
v -44.479744 -0.546324 3.288123
v -44.479744 9.012056 3.288123
v -44.479744 -0.546324 -2.823607
v -44.479744 9.012056 -2.823607
v -9.886473 -0.441720 7.331458
v -9.886473 0.441720 7.331458
v -9.886473 -0.441720 -7.331458
v -9.886473 0.441720 -7.331458
v 45.427170 -0.441720 7.331458
v 45.427170 0.441720 7.331458
v 45.427170 -0.441720 -7.331458
v 45.427170 0.441720 -7.331458
v -3.656322 -0.167565 7.242377
v -3.656322 8.633298 7.242377
v -3.656322 -0.167565 -7.242377
v -3.656322 8.633298 -7.242377
v 2.912777 -0.167565 7.242377
v 2.912777 8.633298 7.242377
v 2.912777 -0.167565 -7.242377
v 2.912777 8.633298 -7.242377
v 21.128967 -0.167565 7.242378
v 21.128967 8.633298 7.242378
v 21.128967 -0.167565 -7.242378
v 21.128967 8.633298 -7.242378
v 27.698067 -0.167565 7.242378
v 27.698067 8.633298 7.242378
v 27.698067 -0.167565 -7.242378
v 27.698067 8.633298 -7.242378
v 2.880932 7.766074 7.135299
v 2.880932 8.635695 7.135299
v 2.880932 7.766074 0.463163
v 2.880932 8.635695 0.463163
v 21.134686 7.766074 7.135299
v 21.134686 8.635695 7.135299
v 21.134686 7.766074 0.463163
v 21.134686 8.635695 0.463163
vn -1.0000 -0.0000 -0.0000
vn -0.0000 -0.0000 -1.0000
vn 1.0000 -0.0000 -0.0000
vn -0.0000 -0.0000 1.0000
vn -0.0000 -1.0000 -0.0000
vn -0.0000 1.0000 -0.0000
vt 0.625000 0.000000
vt 0.375000 0.250000
vt 0.375000 0.000000
vt 0.625000 0.250000
vt 0.375000 0.500000
vt 0.625000 0.500000
vt 0.375000 0.750000
vt 0.625000 0.750000
vt 0.375000 1.000000
vt 0.125000 0.750000
vt 0.125000 0.500000
vt 0.875000 0.500000
vt 0.625000 1.000000
vt 0.875000 0.750000
s 0
f 2/1/1 3/2/1 1/3/1
f 4/4/2 7/5/2 3/2/2
f 8/6/3 5/7/3 7/5/3
f 6/8/4 1/9/4 5/7/4
f 7/5/5 1/10/5 3/11/5
f 4/12/6 6/8/6 8/6/6
f 10/1/1 11/2/1 9/3/1
f 12/4/2 15/5/2 11/2/2
f 16/6/3 13/7/3 15/5/3
f 14/8/4 9/9/4 13/7/4
f 15/5/5 9/10/5 11/11/5
f 12/12/6 14/8/6 16/6/6
f 18/1/1 19/2/1 17/3/1
f 20/4/2 23/5/2 19/2/2
f 24/6/3 21/7/3 23/5/3
f 22/8/4 17/9/4 21/7/4
f 23/5/5 17/10/5 19/11/5
f 20/12/6 22/8/6 24/6/6
f 26/1/1 27/2/1 25/3/1
f 28/4/2 31/5/2 27/2/2
f 32/6/3 29/7/3 31/5/3
f 30/8/4 25/9/4 29/7/4
f 31/5/5 25/10/5 27/11/5
f 28/12/6 30/8/6 32/6/6
f 34/1/1 35/2/1 33/3/1
f 36/4/2 39/5/2 35/2/2
f 40/6/3 37/7/3 39/5/3
f 38/8/4 33/9/4 37/7/4
f 39/5/5 33/10/5 35/11/5
f 36/12/6 38/8/6 40/6/6
f 42/1/1 43/2/1 41/3/1
f 44/4/2 47/5/2 43/2/2
f 48/6/3 45/7/3 47/5/3
f 46/8/4 41/9/4 45/7/4
f 47/5/5 41/10/5 43/11/5
f 44/12/6 46/8/6 48/6/6
f 2/1/1 4/4/1 3/2/1
f 4/4/2 8/6/2 7/5/2
f 8/6/3 6/8/3 5/7/3
f 6/8/4 2/13/4 1/9/4
f 7/5/5 5/7/5 1/10/5
f 4/12/6 2/14/6 6/8/6
f 10/1/1 12/4/1 11/2/1
f 12/4/2 16/6/2 15/5/2
f 16/6/3 14/8/3 13/7/3
f 14/8/4 10/13/4 9/9/4
f 15/5/5 13/7/5 9/10/5
f 12/12/6 10/14/6 14/8/6
f 18/1/1 20/4/1 19/2/1
f 20/4/2 24/6/2 23/5/2
f 24/6/3 22/8/3 21/7/3
f 22/8/4 18/13/4 17/9/4
f 23/5/5 21/7/5 17/10/5
f 20/12/6 18/14/6 22/8/6
f 26/1/1 28/4/1 27/2/1
f 28/4/2 32/6/2 31/5/2
f 32/6/3 30/8/3 29/7/3
f 30/8/4 26/13/4 25/9/4
f 31/5/5 29/7/5 25/10/5
f 28/12/6 26/14/6 30/8/6
f 34/1/1 36/4/1 35/2/1
f 36/4/2 40/6/2 39/5/2
f 40/6/3 38/8/3 37/7/3
f 38/8/4 34/13/4 33/9/4
f 39/5/5 37/7/5 33/10/5
f 36/12/6 34/14/6 38/8/6
f 42/1/1 44/4/1 43/2/1
f 44/4/2 48/6/2 47/5/2
f 48/6/3 46/8/3 45/7/3
f 46/8/4 42/13/4 41/9/4
f 47/5/5 45/7/5 41/10/5
f 44/12/6 42/14/6 46/8/6
