# Blender 3.5.0
# www.blender.org
mtllib BlackR.mtl
o BlackR
v 0.413859 -0.000920 0.152093
v 0.413859 0.495407 0.152093
v 0.990864 -0.000920 0.787028
v 0.990864 0.161787 0.787028
v -0.039947 -0.000920 0.780932
v -0.039947 0.495407 0.780932
v 0.744461 -0.000920 1.128469
v 0.744461 0.161787 1.128469
vn 0.7401 -0.0000 -0.6725
vn 0.8109 -0.0000 0.5852
vn -0.4051 -0.0000 0.9143
vn -0.8109 -0.0000 -0.5852
vn -0.0000 -1.0000 -0.0000
vn 0.2995 0.9293 0.2161
vt 0.375000 0.000000
vt 0.375000 1.000000
vt 0.125000 0.750000
vt 0.625000 0.000000
vt 0.625000 1.000000
vt 0.875000 0.750000
vt 0.375000 0.250000
vt 0.125000 0.500000
vt 0.625000 0.250000
vt 0.875000 0.500000
vt 0.375000 0.750000
vt 0.625000 0.750000
vt 0.375000 0.500000
vt 0.625000 0.500000
s 0
usemtl マテリアル.002
f 1/1/1 2/4/1 4/9/1 3/7/1
f 3/7/2 4/9/2 8/14/2 7/13/2
f 7/13/3 8/14/3 6/12/3 5/11/3
f 5/11/4 6/12/4 2/5/4 1/2/4
f 3/8/5 7/13/5 5/11/5 1/3/5
f 8/14/6 4/10/6 2/6/6 6/12/6
